<svg id="color" enable-background="new 0 0 24 24" height="512" viewBox="0 0 24 24" width="512" xmlns="http://www.w3.org/2000/svg"><path d="m21 1h-18c-1.654 0-3 1.346-3 3v16c0 1.654 1.346 3 3 3h18c1.654 0 3-1.346 3-3v-16c0-1.654-1.346-3-3-3z" fill="#607d8b"/><path d="m21 21h-18c-.551 0-1-.448-1-1v-14h20v14c0 .552-.449 1-1 1z" fill="#fff"/><path d="m12 1h-9c-1.654 0-3 1.346-3 3v16c0 1.654 1.346 3 3 3h9v-2h-9c-.551 0-1-.448-1-1v-14h10z" fill="#546d79"/><path d="m12 6h-10v14c0 .552.449 1 1 1h9z" fill="#dedede"/><path d="m11.25 17h-5.5c-.965 0-1.75-.785-1.75-1.75v-5.5c0-.965.785-1.75 1.75-1.75h5.5c.965 0 1.75.785 1.75 1.75v5.5c0 .965-.785 1.75-1.75 1.75z" fill="#90caf9"/><path d="m11.25 17h-5.5c-.965 0-1.75-.785-1.75-1.75v-.85c0-.199.079-.39.22-.53l1.54-1.54c.684-.684 1.797-.684 2.48 0 .055.055.214.179.375-.019l.519-.649c.66-.841 2.068-.846 2.736.005l.965 1.204c.106.133.165.298.165.469v1.91c0 .965-.785 1.75-1.75 1.75z" fill="#8bc34a"/><path d="m8.5 8h-2.75c-.965 0-1.75.785-1.75 1.75v5.5c0 .965.785 1.75 1.75 1.75h2.75-2.75c-.965 0-1.75-.785-1.75-1.75v-.85c0-.199.079-.39.22-.53l1.54-1.54c.342-.342.791-.513 1.24-.513s.898.171 1.24.513c.032.033.101.089.185.089.024 0 .049-.005.074-.015v-4.404z" fill="#7db0d9"/><path d="m7 11.817c-.449 0-.898.171-1.24.513l-1.54 1.54c-.141.14-.22.331-.22.53v.85c0 .965.785 1.75 1.75 1.75h2.75v-4.596c-.026.011-.051.015-.074.015-.084 0-.153-.057-.185-.089-.343-.342-.792-.513-1.241-.513z" fill="#79aa40"/><path d="m19 20h-14c-.553 0-1-.448-1-1s.447-1 1-1h14c.553 0 1 .448 1 1s-.447 1-1 1z" fill="#b0bec5"/><path d="m12 18h-7c-.553 0-1 .448-1 1s.447 1 1 1h7z" fill="#99a5ac"/><path d="m19 12h-3c-.553 0-1-.448-1-1s.447-1 1-1h3c.553 0 1 .448 1 1s-.447 1-1 1z" fill="#b0bec5"/><path d="m19 16h-3c-.553 0-1-.448-1-1s.447-1 1-1h3c.553 0 1 .448 1 1s-.447 1-1 1z" fill="#b0bec5"/><g fill="#99a5ac"><path d="m17.5 10h-1.5c-.553 0-1 .448-1 1s.447 1 1 1h1.5z"/><path d="m17.5 14h-1.5c-.553 0-1 .448-1 1s.447 1 1 1h1.5z"/></g></svg>